<?xml version="1.0" encoding="UTF-8"?>
<svg xmlns="http://www.w3.org/2000/svg" xmlns:xlink="http://www.w3.org/1999/xlink" width="35pt" height="35pt" viewBox="0 0 35 35" version="1.1">
<g id="surface1">
<path style=" stroke:none;fill-rule:nonzero;fill:rgb(26.666667%,74.901961%,84.313725%);fill-opacity:1;" d="M 30.855469 13.308594 C 30.855469 17.992188 28.433594 22.113281 24.777344 24.484375 C 24.222656 24.839844 23.765625 25.320312 23.441406 25.890625 L 18.660156 34.335938 C 18.648438 34.355469 18.640625 34.371094 18.628906 34.390625 C 18.117188 35.203125 16.910156 35.183594 16.429688 34.335938 L 11.648438 25.890625 C 11.328125 25.320312 10.867188 24.839844 10.316406 24.484375 C 6.605469 22.082031 4.167969 17.878906 4.238281 13.113281 C 4.339844 5.945312 10.191406 0.101562 17.355469 0 C 17.785156 -0.00390625 18.210938 0.0117188 18.628906 0.0429688 C 25.472656 0.59375 30.855469 6.324219 30.855469 13.308594 Z M 30.855469 13.308594 "/>
<path style=" stroke:none;fill-rule:nonzero;fill:rgb(48.627451%,82.352941%,89.019608%);fill-opacity:1;" d="M 30.855469 13.308594 C 30.855469 17.992188 28.433594 22.113281 24.777344 24.484375 C 24.222656 24.839844 23.765625 25.320312 23.441406 25.890625 L 18.660156 34.335938 C 18.648438 34.355469 18.640625 34.371094 18.628906 34.390625 C 18.613281 34.371094 18.605469 34.355469 18.59375 34.335938 L 13.8125 25.890625 C 13.492188 25.320312 13.03125 24.839844 12.480469 24.484375 C 8.769531 22.082031 6.332031 17.878906 6.402344 13.113281 C 6.5 6.246094 11.875 0.59375 18.628906 0.0429688 C 25.472656 0.59375 30.855469 6.324219 30.855469 13.308594 Z M 30.855469 13.308594 "/>
<path style=" stroke:none;fill-rule:nonzero;fill:rgb(76.078431%,91.764706%,94.901961%);fill-opacity:1;" d="M 27.371094 13.292969 C 27.371094 18.722656 22.96875 23.121094 17.546875 23.121094 C 12.117188 23.121094 7.71875 18.71875 7.71875 13.292969 C 7.71875 7.460938 12.78125 2.882812 18.628906 3.527344 C 23.546875 4.066406 27.371094 8.230469 27.371094 13.292969 Z M 27.371094 13.292969 "/>
<path style=" stroke:none;fill-rule:nonzero;fill:rgb(87.058824%,95.686275%,97.254902%);fill-opacity:1;" d="M 27.371094 13.292969 C 27.371094 18.355469 23.546875 22.523438 18.628906 23.058594 C 13.710938 22.523438 9.882812 18.355469 9.882812 13.292969 C 9.882812 8.230469 13.710938 4.066406 18.628906 3.527344 C 23.546875 4.066406 27.371094 8.230469 27.371094 13.292969 Z M 27.371094 13.292969 "/>
<path style=" stroke:none;fill-rule:nonzero;fill:rgb(42.745098%,77.254902%,29.019608%);fill-opacity:1;" d="M 24.46875 12.441406 L 24.46875 20.265625 C 23.320312 21.402344 21.894531 22.261719 20.300781 22.726562 C 19.425781 22.980469 18.503906 23.121094 17.546875 23.121094 C 16.589844 23.121094 15.664062 22.980469 14.789062 22.726562 C 13.195312 22.261719 11.769531 21.402344 10.621094 20.265625 L 10.621094 12.441406 L 17.546875 6.0625 Z M 24.46875 12.441406 "/>
<path style=" stroke:none;fill-rule:nonzero;fill:rgb(36.078431%,63.921569%,23.137255%);fill-opacity:1;" d="M 25.925781 12.828125 L 18.148438 5.050781 C 17.816406 4.722656 17.273438 4.71875 16.941406 5.050781 L 9.164062 12.828125 C 8.835938 13.160156 8.835938 13.695312 9.164062 14.027344 L 9.484375 14.34375 C 9.8125 14.675781 10.351562 14.675781 10.679688 14.34375 L 17.546875 7.480469 L 24.410156 14.34375 C 24.738281 14.675781 25.277344 14.675781 25.605469 14.34375 L 25.925781 14.027344 C 26.253906 13.695312 26.253906 13.160156 25.925781 12.828125 Z M 25.925781 12.828125 "/>
<path style=" stroke:none;fill-rule:nonzero;fill:rgb(36.470588%,70.196078%,22.745098%);fill-opacity:1;" d="M 10.621094 17.035156 L 10.621094 20.265625 C 11.769531 21.402344 13.195312 22.261719 14.789062 22.726562 C 15.664062 22.980469 16.589844 23.121094 17.546875 23.121094 C 17.910156 23.121094 18.273438 23.097656 18.625 23.058594 C 14.996094 22.664062 11.960938 20.289062 10.621094 17.035156 Z M 10.621094 17.035156 "/>
<path style=" stroke:none;fill-rule:nonzero;fill:rgb(36.078431%,63.921569%,23.137255%);fill-opacity:1;" d="M 20.300781 18.332031 L 20.300781 22.726562 C 19.425781 22.980469 18.503906 23.121094 17.546875 23.121094 C 16.589844 23.121094 15.664062 22.980469 14.789062 22.726562 L 14.789062 18.332031 C 14.789062 16.8125 16.023438 15.578125 17.546875 15.578125 C 18.308594 15.578125 18.996094 15.886719 19.496094 16.382812 C 19.992188 16.882812 20.300781 17.574219 20.300781 18.332031 Z M 20.300781 18.332031 "/>
<path style=" stroke:none;fill-rule:nonzero;fill:rgb(28.627451%,55.294118%,17.647059%);fill-opacity:1;" d="M 9.964844 12.03125 L 9.164062 12.828125 C 8.835938 13.160156 8.835938 13.695312 9.164062 14.027344 C 9.480469 14.34375 9.625 14.539062 9.96875 14.585938 C 9.855469 13.742188 9.855469 12.875 9.964844 12.03125 Z M 9.964844 12.03125 "/>
<path style=" stroke:none;fill-rule:nonzero;fill:rgb(28.627451%,55.294118%,17.647059%);fill-opacity:1;" d="M 14.789062 21.800781 L 14.789062 22.726562 C 15.664062 22.980469 16.589844 23.121094 17.546875 23.121094 C 17.910156 23.121094 18.273438 23.097656 18.625 23.058594 C 17.238281 22.90625 15.941406 22.46875 14.789062 21.800781 Z M 14.789062 21.800781 "/>
</g>
</svg>
